<svg height="1966" width="720" xmlns="http://www.w3.org/2000/svg">
<rect height="1966" fill="#555" width="720"></rect>
<text fill="#7f7" font-family="Courier New" font-size="12" xml:space="preserve">
<tspan x="10" y="26"></tspan>
<tspan x="10" y="42">&gt; npmdoc-gulp-uglify@0.0.2 test /home/travis/build/npmdoc/node-npmdoc-gulp-uglify</tspan>
<tspan x="10" y="58">&gt; (set -e; export PORT=$(utility2 shServerPortRandom); utility2 test test.js)</tspan>
<tspan x="10" y="74"></tspan>
<tspan x="10" y="90"></tspan>
<tspan x="10" y="106">[MODE_BUILD=npmTest] - 2017-03-25T13:22:42Z - npm-testing /home/travis/build/npmdoc/node-npmdoc-\</tspan>
<tspan x="10" y="122">gulp-uglify</tspan>
<tspan x="10" y="138"></tspan>
<tspan x="10" y="154"></tspan>
<tspan x="10" y="170">covering $ /home/travis/.nvm/versions/node/v7.7.4/bin/node /home/travis/build/npmdoc/node-npmdoc\</tspan>
<tspan x="10" y="186">-gulp-uglify/test.js</tspan>
<tspan x="10" y="202">merging file:///home/travis/build/npmdoc/node-npmdoc-gulp-uglify/tmp/build/test-report.json to t\</tspan>
<tspan x="10" y="218">est-report</tspan>
<tspan x="10" y="234">&gt; server listening on http-port 51013</tspan>
<tspan x="10" y="250">created apidoc file:///home/travis/build/npmdoc/node-npmdoc-gulp-uglify/tmp/build/apidoc.html</tspan>
<tspan x="10" y="266"></tspan>
<tspan x="10" y="282"></tspan>
<tspan x="10" y="298">browserTest - created electron entry-page /home/travis/build/npmdoc/node-npmdoc-gulp-uglify/tmp/\</tspan>
<tspan x="10" y="314">electron.15b05a220e40.0c2126c9dd869.html</tspan>
<tspan x="10" y="330"></tspan>
<tspan x="10" y="346">[node test-case 1 of 6 passed] - testCase_buildLib_default</tspan>
<tspan x="10" y="362">[node test-case 2 of 6 passed] - testCase_buildReadme_default</tspan>
<tspan x="10" y="378">[node test-case 3 of 6 passed] - testCase_buildTest_default</tspan>
<tspan x="10" y="394"></tspan>
<tspan x="10" y="410">browserTest - created electron entry-page /home/travis/build/npmdoc/node-npmdoc-gulp-uglify/tmp/\</tspan>
<tspan x="10" y="426">electron.15b05a2212e0.82c880be4c5ad.html</tspan>
<tspan x="10" y="442"></tspan>
<tspan x="10" y="458">(node:4914) DeprecationWarning: node --debug is deprecated. Please use node --inspect instead.</tspan>
<tspan x="10" y="474">Xlib:  extension "RANDR" missing on display ":99.0".</tspan>
<tspan x="10" y="490">Xlib:  extension "RANDR" missing on display ":99.0".</tspan>
<tspan x="10" y="506">&gt; server listening on http-port 61891</tspan>
<tspan x="10" y="522">merging file:///home/travis/build/npmdoc/node-npmdoc-gulp-uglify/tmp/build/test-report.json to t\</tspan>
<tspan x="10" y="538">est-report</tspan>
<tspan x="10" y="554">Xlib:  extension "RANDR" missing on display ":99.0".</tspan>
<tspan x="10" y="570">[4944:0325/132244:WARNING:audio_manager.cc(314)] Multiple instances of AudioManager detected</tspan>
<tspan x="10" y="586">[4944:0325/132244:WARNING:audio_manager.cc(275)] Multiple instances of AudioManager detected</tspan>
<tspan x="10" y="602">[4971:0325/132244:ERROR:sandbox_linux.cc(343)] InitializeSandbox() called with multiple threads \</tspan>
<tspan x="10" y="618">in process gpu-process. </tspan>
<tspan x="10" y="634">[4944:0325/132244:ERROR:browser_gpu_channel_host_factory.cc(131)] Failed to create channel.</tspan>
<tspan x="10" y="650">merging file:///home/travis/build/npmdoc/node-npmdoc-gulp-uglify/tmp/build/test-report.json to t\</tspan>
<tspan x="10" y="666">est-report</tspan>
<tspan x="10" y="682">Xlib:  extension "RANDR" missing on display ":99.0".</tspan>
<tspan x="10" y="698">[4949:0325/132244:WARNING:audio_manager.cc(314)] Multiple instances of AudioManager detected</tspan>
<tspan x="10" y="714">[4949:0325/132244:WARNING:audio_manager.cc(275)] Multiple instances of AudioManager detected</tspan>
<tspan x="10" y="730">[5001:0325/132244:ERROR:sandbox_linux.cc(343)] InitializeSandbox() called with multiple threads \</tspan>
<tspan x="10" y="746">in process gpu-process. </tspan>
<tspan x="10" y="762"></tspan>
<tspan x="10" y="778">browserTest - opened url file:///home/travis/build/npmdoc/node-npmdoc-gulp-uglify/tmp/build/apid\</tspan>
<tspan x="10" y="794">oc.html</tspan>
<tspan x="10" y="810"></tspan>
<tspan x="10" y="826"></tspan>
<tspan x="10" y="842">browserTest - opened url http://127.0.0.1:51013?modeTest=1</tspan>
<tspan x="10" y="858"></tspan>
<tspan x="10" y="874">[4949:0325/132246:INFO:CONSOLE(203)] "----------|-----------|-----------|-----------|-----------\</tspan>
<tspan x="10" y="890">|</tspan>
<tspan x="10" y="906">File      |   % Stmts |% Branches |   % Funcs |   % Lines |</tspan>
<tspan x="10" y="922">----------|-----------|-----------|-----------|-----------|</tspan>
<tspan x="10" y="938">----------|-----------|-----------|-----------|-----------|</tspan>
<tspan x="10" y="954">All files |       100 |       100 |       100 |       100 |</tspan>
<tspan x="10" y="970">----------|-----------|-----------|-----------|-----------|</tspan>
<tspan x="10" y="986">", source: file:///home/travis/build/npmdoc/node-npmdoc-gulp-uglify/tmp/electron.15b05a2212e0.82\</tspan>
<tspan x="10" y="1002">c880be4c5ad.html (203)</tspan>
<tspan x="10" y="1018">[4949:0325/132246:INFO:CONSOLE(203)] "created coverage file:///tmp/build/coverage.html/index.htm\</tspan>
<tspan x="10" y="1034">l", source: file:///home/travis/build/npmdoc/node-npmdoc-gulp-uglify/tmp/electron.15b05a2212e0.8\</tspan>
<tspan x="10" y="1050">2c880be4c5ad.html (203)</tspan>
<tspan x="10" y="1066">[node test-case 4 of 6 passed] - testCase_buildApp_default</tspan>
<tspan x="10" y="1082"></tspan>
<tspan x="10" y="1098">browserTest - created screen-capture file:///home/travis/build/npmdoc/node-npmdoc-gulp-uglify/tm\</tspan>
<tspan x="10" y="1114">p/build/screen-capture.npmTest.browser._2Fhome_2Ftravis_2Fbuild_2Fnpmdoc_2Fnode-npmdoc-gulp-ugli\</tspan>
<tspan x="10" y="1130">fy_2Ftmp_2Fbuild_2Fapidoc.html.png</tspan>
<tspan x="10" y="1146"></tspan>
<tspan x="10" y="1162"></tspan>
<tspan x="10" y="1178">browserTest - exit-code 0 - file:///home/travis/build/npmdoc/node-npmdoc-gulp-uglify/tmp/build/a\</tspan>
<tspan x="10" y="1194">pidoc.html</tspan>
<tspan x="10" y="1210"></tspan>
<tspan x="10" y="1226">[node test-case 5 of 6 passed] - testCase_buildApidoc_default</tspan>
<tspan x="10" y="1242"></tspan>
<tspan x="10" y="1258">browserTest - created screen-capture file:///home/travis/build/npmdoc/node-npmdoc-gulp-uglify/tm\</tspan>
<tspan x="10" y="1274">p/build/screen-capture.npmTest.browser..png</tspan>
<tspan x="10" y="1290"></tspan>
<tspan x="10" y="1306"></tspan>
<tspan x="10" y="1322">browserTest - exit-code 0 - http://127.0.0.1:51013?modeTest=1</tspan>
<tspan x="10" y="1338"></tspan>
<tspan x="10" y="1354"></tspan>
<tspan x="10" y="1370">browserTest - merged coverage from /home/travis/build/npmdoc/node-npmdoc-gulp-uglify/tmp/coverag\</tspan>
<tspan x="10" y="1386">e.npmTest.browser.%2F.json</tspan>
<tspan x="10" y="1402"></tspan>
<tspan x="10" y="1418"></tspan>
<tspan x="10" y="1434">browserTest - merging test-report from /home/travis/build/npmdoc/node-npmdoc-gulp-uglify/tmp/tes\</tspan>
<tspan x="10" y="1450">t-report.npmTest.browser.%2F.json</tspan>
<tspan x="10" y="1466"></tspan>
<tspan x="10" y="1482">[node test-case 6 of 6 passed] - testCase_webpage_default</tspan>
<tspan x="10" y="1498">--------------------------------|-----------|-----------|-----------|-----------|</tspan>
<tspan x="10" y="1514">File                            |   % Stmts |% Branches |   % Funcs |   % Lines |</tspan>
<tspan x="10" y="1530">--------------------------------|-----------|-----------|-----------|-----------|</tspan>
<tspan x="10" y="1546">   node-npmdoc-gulp-uglify/     |       100 |       100 |       100 |       100 |</tspan>
<tspan x="10" y="1562">      example.js                |       100 |       100 |       100 |       100 |</tspan>
<tspan x="10" y="1578">      lib.npmdoc_gulp_uglify.js |       100 |       100 |       100 |       100 |</tspan>
<tspan x="10" y="1594">      test.js                   |       100 |       100 |       100 |       100 |</tspan>
<tspan x="10" y="1610">--------------------------------|-----------|-----------|-----------|-----------|</tspan>
<tspan x="10" y="1626">All files                       |       100 |       100 |       100 |       100 |</tspan>
<tspan x="10" y="1642">--------------------------------|-----------|-----------|-----------|-----------|</tspan>
<tspan x="10" y="1658"></tspan>
<tspan x="10" y="1674">created coverage file:///home/travis/build/npmdoc/node-npmdoc-gulp-uglify/tmp/build/coverage.htm\</tspan>
<tspan x="10" y="1690">l/index.html</tspan>
<tspan x="10" y="1706">merging file:///home/travis/build/npmdoc/node-npmdoc-gulp-uglify/tmp/build/test-report.json to t\</tspan>
<tspan x="10" y="1722">est-report</tspan>
<tspan x="10" y="1738"></tspan>
<tspan x="10" y="1754">-------------------------------------------------------</tspan>
<tspan x="10" y="1770">| test-report - buildNpmdoc - node - linux v7.7.4 - 2017-03-25T13:22:31.994Z</tspan>
<tspan x="10" y="1786">|   16352 ms            0 failed        6 passed      |</tspan>
<tspan x="10" y="1802">-------------------------------------------------------</tspan>
<tspan x="10" y="1818"></tspan>
<tspan x="10" y="1834">created test-report file:///home/travis/build/npmdoc/node-npmdoc-gulp-uglify/tmp/build/test-repo\</tspan>
<tspan x="10" y="1850">rt.html</tspan>
<tspan x="10" y="1866"></tspan>
<tspan x="10" y="1882"></tspan>
<tspan x="10" y="1898">npmTest - 0 failed tests</tspan>
<tspan x="10" y="1914"></tspan>
<tspan x="10" y="1930"></tspan>
<tspan x="10" y="1946">[MODE_BUILD=npmTest] - 2017-03-25T13:22:51Z - EXIT_CODE - 0</tspan>
</text>
</svg>
